HIERARCHY
ROOT ui
{
	 OFFSET 0 0 0
	 CHANNELS 3 XPosition YPosition Z Position
	 EndSite
	 {
	 OFFSET 0 -1 0
	 }
}
ROOT li
{
	 OFFSET 0 0 0
	 CHANNELS 3 XPosition YPosition Z Position
	 EndSite
	 {
	 OFFSET 0 -1 0
	 }
}
ROOT ul
{
	 OFFSET 0 0 0
	 CHANNELS 3 XPosition YPosition Z Position
	 EndSite
	 {
	 OFFSET 0 -1 0
	 }
}
ROOT ll
{
	 OFFSET 0 0 0
	 CHANNELS 3 XPosition YPosition Z Position
	 EndSite
	 {
	 OFFSET 0 -1 0
	 }
}
ROOT tt
{
	 OFFSET 0 0 0
	 CHANNELS 3 XPosition YPosition Z Position
	 EndSite
	 {
	 OFFSET 0 -1 0
	 }
}
ROOT tb
{
	 OFFSET 0 0 0
	 CHANNELS 3 XPosition YPosition Z Position
	 EndSite
	 {
	 OFFSET 0 -1 0
	 }
}
ROOT td
{
	 OFFSET 0 0 0
	 CHANNELS 3 XPosition YPosition Z Position
	 EndSite
	 {
	 OFFSET 0 -1 0
	 }
}
ROOT v
{
	 OFFSET 0 0 0
	 CHANNELS 3 XPosition YPosition Z Position
	 EndSite
	 {
	 OFFSET 0 -1 0
	 }
}
ROOT bn
{
	 OFFSET 0 0 0
	 CHANNELS 3 XPosition YPosition Z Position
	 EndSite
	 {
	 OFFSET 0 -1 0
	 }
}
MOTION
Frames: 10
Frame Time: 0.002
0.006743735790252685	-5.865669846534729E-4	0		0.42451953125	-2.334751953125	0		-1.0236425170898438	-0.01569023323059082	0		-0.7730892333984375	-2.240098388671875	0		1.060055419921875	-0.66094970703125	0		2.929841064453125	-0.20155247497558593	0		4.58599560546875	-0.20571401977539064	0		5.5764228515625	0.11708636474609375	0		-0.023166873931884765	5.98070849609375	0		
0.007616318225860595	-6.865310072898865E-4	0		0.43043841552734374	-2.347885498046875	0		-1.103806396484375	-0.01758457565307617	0		-0.8208316040039062	-2.23148779296875	0		1.056099609375	-0.654852294921875	0		2.934816650390625	-0.19639427185058594	0		4.57589208984375	-0.20512725830078124	0		5.5772822265625	0.11760371398925781	0		-0.022957233428955077	5.98060498046875	0		
0.008483015060424804	-7.890610098838806E-4	0		0.4315591125488281	-2.347942138671875	0		-1.0269639892578124	-0.02003700637817383	0		-0.7749235229492187	-2.244406494140625	0		1.057037109375	-0.6548413696289063	0		2.9486220703125	-0.20138973999023438	0		4.58165087890625	-0.21281527709960937	0		5.56813720703125	0.11826571655273438	0		-0.07474717712402344	5.9803408203125	0		
0.009325549125671387	-8.925600051879883E-4	0		0.40673004150390624	-2.342584228515625	0		-1.086192138671875	-0.02428318405151367	0		-0.8067303466796875	-2.23706201171875	0		1.04086962890625	-0.6595615844726562	0		2.94687158203125	-0.17714163208007813	0		4.5848369140625	-0.19247682189941406	0		5.57893408203125	0.11658123779296875	0		-0.05933712005615235	5.99198583984375	0		
0.014186850547790527	0.002940279960632324	0		0.43980410766601563	-2.3401591796875	0		-1.0102736206054688	-0.017693952560424806	0		-0.8036788940429688	-2.23527783203125	0		1.0447803955078125	-0.6566102905273438	0		2.944543701171875	-0.18590383911132813	0		4.60252392578125	-0.20039620971679686	0		5.58386328125	0.1259660186767578	0		-0.04123195266723633	5.98558935546875	0		
-0.041123077392578124	7.302370071411132E-4	0		0.4107416687011719	-2.34074267578125	0		-1.096498291015625	-0.014507970809936523	0		-0.8047705078125	-2.23742236328125	0		1.0455726318359375	-0.6566138916015625	0		2.973399658203125	-0.17917552185058594	0		4.5833076171875	-0.19774986267089845	0		5.58047216796875	0.11945108032226562	0		-0.04106046676635742	5.985484375	0		
0.01149673843383789	-0.0011920709609985352	0		0.4644708251953125	-2.348640625	0		-1.0188802490234374	-0.016917255401611327	0		-0.8158527221679688	-2.23240087890625	0		1.06520654296875	-0.6609197387695313	0		2.93698291015625	-0.183428466796875	0		4.59087158203125	-0.20355731201171876	0		5.5852138671875	0.12677635955810546	0		-0.05611227035522461	5.97462158203125	0		
-0.03994679260253906	5.336959958076478E-4	0		0.4082486572265625	-2.344800048828125	0		-1.0993818359375	-0.018818326950073242	0		-0.8171696166992187	-2.23452734375	0		1.0608890380859375	-0.6548482666015625	0		2.936720703125	-0.17126963806152343	0		4.59348486328125	-0.19931124877929687	0		5.58162841796875	0.12019828033447266	0		-0.040888896942138674	5.98528759765625	0		
0.012441888809204101	-0.001368419051170349	0		0.43882907104492186	-2.345324951171875	0		-1.0120115966796874	-0.022346120834350586	0		-0.802642333984375	-2.237892333984375	0		1.047318603515625	-0.656636474609375	0		2.961796875	-0.19352677917480468	0		4.59391015625	-0.19905755615234375	0		5.586857421875	0.10944815826416016	0		-0.05687175369262695	5.98844873046875	0		
-0.06319538879394532	0.00473734188079834	0		0.417405029296875	-2.336031982421875	0		-1.0017513427734375	-0.02364793586730957	0		-0.7971547241210938	-2.234102783203125	0		1.0785877685546874	-0.6601267700195312	0		2.940508544921875	-0.1660665740966797	0		4.59241748046875	-0.18479759216308594	0		5.59126513671875	0.11868199157714844	0		-0.04006297302246094	5.9841025390625	0		
